<?xml version="1.0" encoding="UTF-8"?>
<svg version="1.1" xmlns="http://www.w3.org/2000/svg" width="500" height="522">
<path d="M0 0 C1.46049774 0.00273422 1.46049774 0.00273422 2.95050049 0.00552368 C16.9687164 0.04974564 30.60882275 0.45111782 44.375 3.3125 C45.23996094 3.47878906 46.10492188 3.64507812 46.99609375 3.81640625 C103.42558126 14.74607743 157.08986202 46.5798072 192.375 92.3125 C193.16003906 93.2921875 193.94507813 94.271875 194.75390625 95.28125 C219.32338061 126.15406537 235.68143559 162.27300582 244.75 200.5625 C244.97647217 201.50496582 245.20294434 202.44743164 245.4362793 203.41845703 C249.62285849 222.16917137 250.82471953 240.99306102 250.79492188 260.15014648 C250.80228589 262.43297229 250.81087876 264.71579441 250.82058716 266.99861145 C250.8425512 273.12212919 250.84574713 279.24551144 250.84383965 285.36906314 C250.84371892 290.50589444 250.85232287 295.64269805 250.86061716 300.77952152 C250.88084422 313.59063607 250.88203487 326.40165195 250.87481004 339.21277303 C250.86922446 350.2971559 250.89012431 361.38130841 250.92317051 372.46563744 C250.95701069 383.90672009 250.9715909 395.34764847 250.96745348 406.78879029 C250.96539454 413.18860911 250.97073493 419.58819747 250.99534607 425.98797417 C251.01771324 432.00067081 251.01565246 438.01288765 250.99541855 444.02558708 C250.99202771 446.2200305 250.99701356 448.41450693 251.01140213 450.60890579 C251.13779012 471.32657648 247.49869462 489.4652587 232.72265625 505.15234375 C220.78819985 516.13363225 206.99757011 522.47026373 190.65910339 522.45294189 C189.78155043 522.45591302 188.90399747 522.45888414 187.999852 522.4619453 C185.05872955 522.4706175 182.11764789 522.47213938 179.17651367 522.47363281 C177.06695977 522.47826252 174.95740671 522.48328739 172.84785461 522.48867798 C167.11118531 522.50180079 161.37452772 522.50824827 155.63784575 522.51268864 C152.04504919 522.5156233 148.4522558 522.51972915 144.85946083 522.52419281 C133.59444735 522.53787568 122.32944114 522.54753497 111.06441993 522.5513947 C98.10867791 522.55585892 85.15304227 522.57332704 72.19733256 522.6023953 C62.15787171 522.62412838 52.11844051 522.63410536 42.07895643 522.63543582 C36.0967314 522.6364768 30.11460625 522.64223049 24.13240623 522.66025543 C18.48609599 522.67693509 12.83995847 522.67879689 7.19363213 522.67011642 C5.14124331 522.6693562 3.08884444 522.67355139 1.03647995 522.68357468 C-17.9791733 522.77085564 -37.03386364 521.27118576 -55.5 516.5 C-56.53261963 516.24138184 -57.56523926 515.98276367 -58.62915039 515.71630859 C-93.10148611 506.88903814 -124.99010491 490.70572231 -152.625 468.3125 C-153.17478516 467.86712891 -153.72457031 467.42175781 -154.29101562 466.96289062 C-167.9838312 455.76542091 -180.88527077 443.39645096 -191.625 429.3125 C-192.56488755 428.11311147 -193.50500755 426.91390507 -194.4453125 425.71484375 C-238.74915395 368.60240948 -256.46750159 295.81910436 -247.65625 224.46875 C-242.24776252 185.06405549 -228.42032389 145.19512557 -205.625 112.3125 C-205.25552246 111.77608887 -204.88604492 111.23967773 -204.50537109 110.68701172 C-198.90661643 102.58990015 -193.02521914 94.80041291 -186.625 87.3125 C-185.97660156 86.55195312 -185.32820313 85.79140625 -184.66015625 85.0078125 C-173.13312394 71.86566818 -160.75020223 59.63007435 -146.625 49.3125 C-145.47394983 48.45443848 -144.32290823 47.59636549 -143.171875 46.73828125 C-134.98100822 40.70036344 -126.46790272 35.33934157 -117.625 30.3125 C-116.98256348 29.9427002 -116.34012695 29.57290039 -115.67822266 29.19189453 C-91.73687312 15.52213712 -64.82299422 6.62484176 -37.625 2.3125 C-35.93721436 2.04433472 -35.93721436 2.04433472 -34.21533203 1.77075195 C-22.80571785 0.14566733 -11.51179198 -0.04468008 0 0 Z M-119.27124023 144.16210938 C-138.33441126 165.8457028 -154.0920105 194.5584621 -158.625 223.3125 C-157.90054688 223.68761719 -157.17609375 224.06273437 -156.4296875 224.44921875 C-145.07298481 230.46070004 -138.08092429 236.64055157 -133.75 249.125 C-130.79170346 260.46218436 -132.16493846 272.47204599 -137.98046875 282.6953125 C-143.42843515 290.37796753 -149.90019237 294.94919547 -158.625 298.3125 C-154.27846047 336.98783133 -127.06429575 374.70558333 -97.56616211 398.59741211 C-90.35813869 404.18966972 -82.58335534 408.88296907 -74.625 413.3125 C-73.51640625 413.92996094 -72.4078125 414.54742187 -71.265625 415.18359375 C-34.97441999 434.30888841 8.56390711 437.86781265 47.6875 426 C59.34107339 422.21824862 70.85737224 417.62307666 81.375 411.3125 C81.375 417.9125 81.375 424.5125 81.375 431.3125 C109.095 431.3125 136.815 431.3125 165.375 431.3125 C165.46250391 398.94434686 165.46250391 398.94434686 165.52148438 366.57617188 C165.53923659 353.36316405 165.5600257 340.1502139 165.60131836 326.93725586 C165.63138643 317.31132179 165.65061398 307.68543483 165.65726548 298.0594551 C165.6611485 292.97093629 165.67015956 287.88255219 165.69219017 282.79407692 C165.7128316 277.98667816 165.71877912 273.17946722 165.71432304 268.37202835 C165.71513607 266.62476385 165.72093467 264.87749183 165.73261642 263.13026619 C165.83725677 246.64499816 164.26763645 230.08421002 159.6875 214.1875 C159.43331299 213.28555908 159.17912598 212.38361816 158.91723633 211.4543457 C146.58591646 169.33002555 118.57906747 131.99437203 80.1875 110.328125 C13.08456784 73.66306817 -67.73267619 87.6465158 -119.27124023 144.16210938 Z M-190.625 244.3125 C-195.82840146 251.46403486 -196.79880216 258.63940624 -195.625 267.3125 C-193.48870158 274.92590393 -189.19710099 280.94785221 -182.4375 285.125 C-176.08848785 288.37847389 -169.89579024 289.22868895 -163 287.25 C-154.3588444 283.84544576 -149.3733738 278.75840663 -145.625 270.3125 C-143.34338589 263.46765766 -143.5873208 255.58424537 -146.5625 249 C-150.11129969 242.81984599 -155.19564275 238.10172987 -161.5 234.8125 C-173.46098316 232.8987427 -182.36470282 235.17087404 -190.625 244.3125 Z " fill="#155AFF" transform="translate(249.625,-0.3125)"/>
<path d="M0 0 C16.02386359 13.92603187 25.42876445 31.97936389 29.1171875 52.75 C31.01532441 80.55443301 25.32087638 103.05343591 6.8828125 124.328125 C-7.38693561 139.53053639 -26.49431518 147.73525015 -47.21875 148.87890625 C-68.63186602 149.39864208 -88.14257645 141.7115449 -103.61328125 127.015625 C-104.36222656 126.26796875 -105.11117187 125.5203125 -105.8828125 124.75 C-106.58019531 124.06421875 -107.27757812 123.3784375 -107.99609375 122.671875 C-124.41494637 105.4559907 -129.5965748 82.90859717 -129.1875 59.8046875 C-128.48395156 41.16937553 -121.35746061 23.61901996 -108.8828125 9.75 C-108.10035156 8.77289063 -107.31789062 7.79578125 -106.51171875 6.7890625 C-80.30611864 -24.69443394 -30.5195821 -23.82016164 0 0 Z " fill="#155AFF" transform="translate(300.8828125,195.25)"/>
</svg>
